<svg width="7" height="7" viewBox="0 0 7 7" fill="none" xmlns="http://www.w3.org/2000/svg">
<g clip-path="url(#clip0_441_115)">
<path fill-rule="evenodd" clip-rule="evenodd" d="M6.34977 0.376509C6.41778 0.444527 6.44083 0.545496 6.40905 0.636288L4.65625 5.64429C4.62233 5.74119 4.5327 5.80757 4.43011 5.81176C4.32753 5.81594 4.23279 5.75708 4.19109 5.66326L3.2286 3.49767L1.06301 2.53519C0.969191 2.49349 0.910331 2.39874 0.914516 2.29616C0.918701 2.19358 0.985083 2.10394 1.08199 2.07003L6.08999 0.317226C6.18078 0.285449 6.28175 0.308491 6.34977 0.376509ZM3.71697 3.36342L4.39221 4.88271L5.57388 1.50651L3.71697 3.36342ZM5.21976 1.15239L1.84356 2.33406L3.36285 3.0093L5.21976 1.15239Z" fill="white"/>
</g>
<defs>
<clipPath id="clip0_441_115">
<rect width="6.0096" height="6.0096" fill="white" transform="translate(0.663818 0.0527954)"/>
</clipPath>
</defs>
</svg>
